<svg xmlns="http://www.w3.org/2000/svg" xmlns:xlink="http://www.w3.org/1999/xlink" width="100" zoomAndPan="magnify" viewBox="0 0 75 37.5" height="50" preserveAspectRatio="xMidYMid meet" version="1.0"><defs><g/><clipPath id="ec53f0a6df"><path d="M 2.0625 0 L 30.1875 0 L 30.1875 33.304688 L 2.0625 33.304688 Z M 2.0625 0 " clip-rule="nonzero"/></clipPath></defs><g clip-path="url(#ec53f0a6df)"><path fill="#eb690a" d="M 9.714844 22.972656 C 9.570312 22.339844 9.917969 21.695312 10.53125 21.484375 L 12.484375 20.792969 L 12.132812 19.804688 C 11.316406 17.484375 12.535156 14.925781 14.847656 14.109375 C 17.164062 13.292969 19.714844 14.511719 20.53125 16.832031 L 20.882812 17.824219 L 22.832031 17.132812 C 23.445312 16.914062 24.121094 17.195312 24.402344 17.777344 L 28.917969 27.082031 L 30.140625 11.78125 C 30.210938 10.894531 29.605469 10.097656 28.738281 9.921875 L 25.964844 9.378906 L 26.238281 7.96875 C 26.882812 4.65625 24.726562 1.441406 21.425781 0.789062 C 18.121094 0.144531 14.914062 2.304688 14.261719 5.617188 L 13.988281 7.027344 L 11.214844 6.484375 C 10.339844 6.3125 9.480469 6.824219 9.210938 7.671875 L 2.398438 29.242188 C 2.074219 30.273438 2.71875 31.359375 3.777344 31.570312 L 12.0625 33.199219 Z M 25.46875 11.941406 C 25.386719 12.363281 24.976562 12.640625 24.554688 12.554688 C 24.136719 12.472656 23.859375 12.0625 23.945312 11.640625 C 24.027344 11.222656 24.433594 10.945312 24.855469 11.027344 C 25.269531 11.113281 25.550781 11.519531 25.46875 11.941406 Z M 15.800781 5.921875 C 16.285156 3.460938 18.667969 1.851562 21.132812 2.332031 C 23.59375 2.808594 25.195312 5.207031 24.714844 7.671875 L 24.441406 9.085938 L 15.523438 7.335938 Z M 14.410156 8.976562 C 14.828125 9.0625 15.105469 9.46875 15.019531 9.890625 C 14.9375 10.3125 14.53125 10.589844 14.109375 10.503906 C 13.6875 10.421875 13.414062 10.011719 13.496094 9.589844 C 13.574219 9.167969 13.980469 8.894531 14.410156 8.976562 Z M 14.410156 8.976562 " fill-opacity="1" fill-rule="nonzero"/></g><path fill="#eb690a" d="M 19.460938 17.207031 C 18.855469 15.484375 16.953125 14.570312 15.226562 15.183594 C 13.503906 15.789062 12.589844 17.695312 13.203125 19.425781 L 13.554688 20.417969 L 19.8125 18.207031 Z M 19.460938 17.207031 " fill-opacity="1" fill-rule="nonzero"/><path fill="#eb690a" d="M 13.457031 21.867188 C 13.164062 21.96875 13.007812 22.296875 13.113281 22.597656 C 13.214844 22.890625 13.542969 23.050781 13.839844 22.941406 C 14.136719 22.839844 14.292969 22.511719 14.1875 22.214844 C 14.082031 21.917969 13.757812 21.757812 13.457031 21.867188 Z M 13.457031 21.867188 " fill-opacity="1" fill-rule="nonzero"/><path fill="#eb690a" d="M 21.167969 20.347656 C 21.460938 20.246094 21.621094 19.917969 21.515625 19.617188 C 21.410156 19.324219 21.085938 19.164062 20.785156 19.273438 C 20.488281 19.382812 20.332031 19.703125 20.441406 20 C 20.550781 20.296875 20.875 20.457031 21.167969 20.347656 Z M 21.167969 20.347656 " fill-opacity="1" fill-rule="nonzero"/><g fill="#eb690a" fill-opacity="1"><g transform="translate(15.483732, 33.056175)"><g><path d="M 0.203125 -0.125 L 1.765625 -0.125 L 1.84375 -8 C 1.632812 -8 1.410156 -7.992188 1.171875 -7.984375 C 0.929688 -7.984375 0.671875 -7.984375 0.390625 -7.984375 L 0.390625 -8.203125 C 0.835938 -8.210938 1.242188 -8.21875 1.609375 -8.21875 C 1.972656 -8.21875 2.300781 -8.21875 2.59375 -8.21875 C 2.882812 -8.226562 3.140625 -8.234375 3.359375 -8.234375 C 3.578125 -8.234375 3.769531 -8.234375 3.9375 -8.234375 L 4.78125 -8.234375 C 4.925781 -8.234375 5.117188 -8.222656 5.359375 -8.203125 C 5.597656 -8.179688 5.859375 -8.140625 6.140625 -8.078125 C 6.421875 -8.015625 6.707031 -7.921875 7 -7.796875 C 7.289062 -7.679688 7.550781 -7.53125 7.78125 -7.34375 C 8.019531 -7.15625 8.210938 -6.914062 8.359375 -6.625 C 8.515625 -6.34375 8.59375 -6.003906 8.59375 -5.609375 C 8.59375 -5.097656 8.5 -4.675781 8.3125 -4.34375 C 8.125 -4.007812 7.847656 -3.738281 7.484375 -3.53125 C 7.117188 -3.332031 6.664062 -3.191406 6.125 -3.109375 C 5.59375 -3.035156 4.972656 -3 4.265625 -3 L 3.953125 -3 L 3.90625 -0.125 L 5.390625 -0.125 L 5.390625 0.09375 L 0.203125 0.09375 Z M 6.515625 -5.625 C 6.515625 -5.96875 6.484375 -6.257812 6.421875 -6.5 C 6.367188 -6.75 6.285156 -6.957031 6.171875 -7.125 C 6.066406 -7.300781 5.9375 -7.441406 5.78125 -7.546875 C 5.632812 -7.660156 5.46875 -7.75 5.28125 -7.8125 C 5.101562 -7.875 4.90625 -7.914062 4.6875 -7.9375 C 4.46875 -7.96875 4.242188 -7.984375 4.015625 -7.984375 L 3.953125 -3.265625 C 4.265625 -3.296875 4.539062 -3.351562 4.78125 -3.4375 C 5.03125 -3.519531 5.242188 -3.617188 5.421875 -3.734375 C 5.609375 -3.859375 5.765625 -3.988281 5.890625 -4.125 C 6.015625 -4.257812 6.117188 -4.398438 6.203125 -4.546875 C 6.390625 -4.878906 6.492188 -5.238281 6.515625 -5.625 Z M 6.515625 -5.625 "/></g></g></g><g fill="#eb690a" fill-opacity="1"><g transform="translate(24.264704, 33.056175)"><g><path d="M 2.703125 -3.734375 C 2.828125 -3.960938 2.953125 -4.140625 3.078125 -4.265625 C 3.210938 -4.398438 3.335938 -4.507812 3.453125 -4.59375 C 3.578125 -4.675781 3.707031 -4.734375 3.84375 -4.765625 C 4.007812 -4.773438 4.148438 -4.757812 4.265625 -4.71875 C 4.390625 -4.675781 4.488281 -4.609375 4.5625 -4.515625 C 4.644531 -4.429688 4.703125 -4.332031 4.734375 -4.21875 C 4.765625 -4.101562 4.78125 -3.976562 4.78125 -3.84375 C 4.78125 -3.71875 4.769531 -3.585938 4.75 -3.453125 C 4.726562 -3.328125 4.695312 -3.207031 4.65625 -3.09375 C 4.613281 -2.976562 4.5625 -2.867188 4.5 -2.765625 C 4.445312 -2.671875 4.390625 -2.59375 4.328125 -2.53125 L 4.34375 -2.53125 C 4.226562 -2.414062 4.117188 -2.332031 4.015625 -2.28125 C 3.910156 -2.238281 3.8125 -2.21875 3.71875 -2.21875 C 3.539062 -2.21875 3.394531 -2.269531 3.28125 -2.375 C 3.175781 -2.488281 3.125 -2.640625 3.125 -2.828125 C 3.125 -2.972656 3.15625 -3.128906 3.21875 -3.296875 C 3.289062 -3.472656 3.40625 -3.632812 3.5625 -3.78125 C 3.664062 -3.863281 3.769531 -3.929688 3.875 -3.984375 C 3.96875 -4.035156 4.070312 -4.070312 4.1875 -4.09375 C 4.3125 -4.125 4.429688 -4.117188 4.546875 -4.078125 C 4.515625 -4.222656 4.445312 -4.34375 4.34375 -4.4375 C 4.238281 -4.53125 4.082031 -4.566406 3.875 -4.546875 C 3.71875 -4.515625 3.570312 -4.445312 3.4375 -4.34375 C 3.3125 -4.25 3.179688 -4.113281 3.046875 -3.9375 C 2.921875 -3.757812 2.8125 -3.519531 2.71875 -3.21875 L 2.78125 -0.109375 L 3.796875 -0.140625 L 3.796875 0.078125 L 0.171875 0.15625 L 0.171875 -0.0625 L 0.953125 -0.078125 L 1 -4.40625 L 0.359375 -4.4375 L 0.359375 -4.65625 L 2.703125 -4.5625 Z M 2.703125 -3.734375 "/></g></g></g><g fill="#eb690a" fill-opacity="1"><g transform="translate(29.29247, 33.056175)"><g><path d="M 5.171875 -2.953125 C 5.171875 -2.742188 5.101562 -2.554688 4.96875 -2.390625 C 4.84375 -2.222656 4.671875 -2.078125 4.453125 -1.953125 C 4.242188 -1.835938 4.007812 -1.742188 3.75 -1.671875 C 3.5 -1.609375 3.253906 -1.578125 3.015625 -1.578125 C 2.992188 -1.578125 2.953125 -1.578125 2.890625 -1.578125 C 2.835938 -1.585938 2.769531 -1.601562 2.6875 -1.625 C 2.613281 -1.644531 2.53125 -1.675781 2.4375 -1.71875 C 2.34375 -1.769531 2.242188 -1.835938 2.140625 -1.921875 C 2.148438 -1.578125 2.179688 -1.28125 2.234375 -1.03125 C 2.296875 -0.78125 2.367188 -0.578125 2.453125 -0.421875 C 2.535156 -0.265625 2.632812 -0.148438 2.75 -0.078125 C 2.875 -0.00390625 3.007812 0.03125 3.15625 0.03125 C 3.238281 0.03125 3.347656 0.00390625 3.484375 -0.046875 C 3.617188 -0.0976562 3.757812 -0.179688 3.90625 -0.296875 C 4.0625 -0.410156 4.210938 -0.554688 4.359375 -0.734375 C 4.503906 -0.910156 4.628906 -1.125 4.734375 -1.375 L 4.90625 -1.796875 L 5.109375 -1.734375 L 5.015625 -1.46875 C 4.929688 -1.238281 4.816406 -1.019531 4.671875 -0.8125 C 4.535156 -0.601562 4.375 -0.414062 4.1875 -0.25 C 4 -0.09375 3.789062 0.03125 3.5625 0.125 C 3.332031 0.226562 3.09375 0.289062 2.84375 0.3125 C 2.382812 0.289062 2 0.207031 1.6875 0.0625 C 1.375 -0.0703125 1.117188 -0.25 0.921875 -0.46875 C 0.734375 -0.695312 0.59375 -0.945312 0.5 -1.21875 C 0.414062 -1.5 0.375 -1.78125 0.375 -2.0625 C 0.375 -2.238281 0.398438 -2.4375 0.453125 -2.65625 C 0.515625 -2.875 0.597656 -3.09375 0.703125 -3.3125 C 0.816406 -3.53125 0.953125 -3.742188 1.109375 -3.953125 C 1.265625 -4.160156 1.441406 -4.34375 1.640625 -4.5 C 1.847656 -4.664062 2.070312 -4.796875 2.3125 -4.890625 C 2.550781 -4.992188 2.8125 -5.046875 3.09375 -5.046875 C 3.34375 -5.035156 3.566406 -4.992188 3.765625 -4.921875 C 3.972656 -4.859375 4.15625 -4.769531 4.3125 -4.65625 C 4.46875 -4.539062 4.597656 -4.410156 4.703125 -4.265625 C 4.816406 -4.128906 4.90625 -3.984375 4.96875 -3.828125 C 5.039062 -3.679688 5.09375 -3.53125 5.125 -3.375 C 5.15625 -3.226562 5.171875 -3.085938 5.171875 -2.953125 Z M 3 -4.828125 C 2.875 -4.816406 2.753906 -4.742188 2.640625 -4.609375 C 2.535156 -4.472656 2.441406 -4.289062 2.359375 -4.0625 C 2.285156 -3.832031 2.226562 -3.5625 2.1875 -3.25 C 2.144531 -2.945312 2.125 -2.617188 2.125 -2.265625 C 2.226562 -2.148438 2.328125 -2.0625 2.421875 -2 C 2.515625 -1.9375 2.601562 -1.890625 2.6875 -1.859375 C 2.769531 -1.828125 2.835938 -1.804688 2.890625 -1.796875 C 2.953125 -1.796875 2.988281 -1.796875 3 -1.796875 C 3.144531 -1.796875 3.269531 -1.828125 3.375 -1.890625 C 3.476562 -1.953125 3.554688 -2.035156 3.609375 -2.140625 C 3.660156 -2.253906 3.695312 -2.382812 3.71875 -2.53125 C 3.75 -2.6875 3.765625 -2.863281 3.765625 -3.0625 C 3.765625 -3.289062 3.75 -3.507812 3.71875 -3.71875 C 3.6875 -3.9375 3.640625 -4.125 3.578125 -4.28125 C 3.523438 -4.445312 3.445312 -4.578125 3.34375 -4.671875 C 3.25 -4.773438 3.132812 -4.828125 3 -4.828125 Z M 3 -4.828125 "/></g></g></g><g fill="#eb690a" fill-opacity="1"><g transform="translate(34.860604, 33.056175)"><g><path d="M 4.3125 -3.203125 L 0.6875 -3.28125 L 0.6875 -4.40625 L 4.3125 -4.40625 Z M 4.3125 -3.203125 "/></g></g></g><g fill="#eb690a" fill-opacity="1"><g transform="translate(39.864876, 33.056175)"><g><path d="M 0.109375 -0.09375 L 1.015625 -0.09375 L 1.171875 -7.6875 L 0.140625 -7.71875 L 0.140625 -7.9375 L 2.921875 -7.875 L 2.75 -0.09375 L 3.953125 -0.09375 L 3.953125 0.125 L 0.109375 0.125 Z M 0.109375 -0.09375 "/></g></g></g><g fill="#eb690a" fill-opacity="1"><g transform="translate(43.764919, 33.056175)"><g><path d="M 5.96875 -2.15625 C 5.96875 -1.882812 5.921875 -1.628906 5.828125 -1.390625 C 5.734375 -1.160156 5.609375 -0.945312 5.453125 -0.75 C 5.304688 -0.5625 5.132812 -0.390625 4.9375 -0.234375 C 4.738281 -0.0859375 4.53125 0.0351562 4.3125 0.140625 C 4.101562 0.242188 3.890625 0.320312 3.671875 0.375 C 3.460938 0.425781 3.269531 0.453125 3.09375 0.453125 L 3.03125 0.453125 C 2.851562 0.453125 2.660156 0.421875 2.453125 0.359375 C 2.253906 0.304688 2.054688 0.226562 1.859375 0.125 C 1.660156 0.0195312 1.472656 -0.101562 1.296875 -0.25 C 1.117188 -0.40625 0.957031 -0.582031 0.8125 -0.78125 C 0.675781 -0.988281 0.566406 -1.222656 0.484375 -1.484375 C 0.410156 -1.742188 0.375 -2.023438 0.375 -2.328125 C 0.375 -2.648438 0.421875 -2.941406 0.515625 -3.203125 C 0.609375 -3.460938 0.734375 -3.695312 0.890625 -3.90625 C 1.054688 -4.113281 1.238281 -4.296875 1.4375 -4.453125 C 1.644531 -4.609375 1.847656 -4.734375 2.046875 -4.828125 C 2.253906 -4.929688 2.453125 -5.007812 2.640625 -5.0625 C 2.835938 -5.113281 3.003906 -5.140625 3.140625 -5.140625 L 3.1875 -5.140625 C 3.425781 -5.128906 3.660156 -5.082031 3.890625 -5 C 4.117188 -4.925781 4.335938 -4.820312 4.546875 -4.6875 C 4.753906 -4.5625 4.941406 -4.40625 5.109375 -4.21875 C 5.285156 -4.039062 5.4375 -3.84375 5.5625 -3.625 C 5.6875 -3.40625 5.785156 -3.171875 5.859375 -2.921875 C 5.929688 -2.671875 5.96875 -2.414062 5.96875 -2.15625 Z M 4.09375 -2.25 C 4.09375 -2.34375 4.09375 -2.472656 4.09375 -2.640625 C 4.09375 -2.816406 4.082031 -3.003906 4.0625 -3.203125 C 4.050781 -3.398438 4.023438 -3.601562 3.984375 -3.8125 C 3.953125 -4.019531 3.898438 -4.203125 3.828125 -4.359375 C 3.765625 -4.523438 3.675781 -4.660156 3.5625 -4.765625 C 3.445312 -4.867188 3.304688 -4.921875 3.140625 -4.921875 C 2.816406 -4.921875 2.5625 -4.703125 2.375 -4.265625 C 2.195312 -3.828125 2.109375 -3.164062 2.109375 -2.28125 C 2.109375 -1.832031 2.125 -1.445312 2.15625 -1.125 C 2.195312 -0.8125 2.253906 -0.550781 2.328125 -0.34375 C 2.410156 -0.144531 2.515625 0 2.640625 0.09375 C 2.765625 0.1875 2.914062 0.234375 3.09375 0.234375 L 3.140625 0.234375 C 3.304688 0.234375 3.445312 0.179688 3.5625 0.078125 C 3.675781 -0.015625 3.769531 -0.160156 3.84375 -0.359375 C 3.914062 -0.566406 3.96875 -0.820312 4 -1.125 C 4.039062 -1.4375 4.070312 -1.8125 4.09375 -2.25 Z M 4.09375 -2.25 "/></g></g></g><g fill="#eb690a" fill-opacity="1"><g transform="translate(50.090743, 33.056175)"><g><path d="M 4.171875 -4.65625 L 5.984375 -4.65625 L 5.984375 -4.4375 L 5.28125 -4.4375 L 3.015625 0.46875 L 0.75 -4.5625 L 0.046875 -4.5625 L 0.046875 -4.78125 L 3.296875 -4.78125 L 3.296875 -4.5625 L 2.578125 -4.5625 L 3.8125 -1.78125 L 5.046875 -4.4375 L 4.171875 -4.4375 Z M 4.171875 -4.65625 "/></g></g></g><g fill="#eb690a" fill-opacity="1"><g transform="translate(56.058279, 33.056175)"><g><path d="M 5.171875 -2.953125 C 5.171875 -2.742188 5.101562 -2.554688 4.96875 -2.390625 C 4.84375 -2.222656 4.671875 -2.078125 4.453125 -1.953125 C 4.242188 -1.835938 4.007812 -1.742188 3.75 -1.671875 C 3.5 -1.609375 3.253906 -1.578125 3.015625 -1.578125 C 2.992188 -1.578125 2.953125 -1.578125 2.890625 -1.578125 C 2.835938 -1.585938 2.769531 -1.601562 2.6875 -1.625 C 2.613281 -1.644531 2.53125 -1.675781 2.4375 -1.71875 C 2.34375 -1.769531 2.242188 -1.835938 2.140625 -1.921875 C 2.148438 -1.578125 2.179688 -1.28125 2.234375 -1.03125 C 2.296875 -0.78125 2.367188 -0.578125 2.453125 -0.421875 C 2.535156 -0.265625 2.632812 -0.148438 2.75 -0.078125 C 2.875 -0.00390625 3.007812 0.03125 3.15625 0.03125 C 3.238281 0.03125 3.347656 0.00390625 3.484375 -0.046875 C 3.617188 -0.0976562 3.757812 -0.179688 3.90625 -0.296875 C 4.0625 -0.410156 4.210938 -0.554688 4.359375 -0.734375 C 4.503906 -0.910156 4.628906 -1.125 4.734375 -1.375 L 4.90625 -1.796875 L 5.109375 -1.734375 L 5.015625 -1.46875 C 4.929688 -1.238281 4.816406 -1.019531 4.671875 -0.8125 C 4.535156 -0.601562 4.375 -0.414062 4.1875 -0.25 C 4 -0.09375 3.789062 0.03125 3.5625 0.125 C 3.332031 0.226562 3.09375 0.289062 2.84375 0.3125 C 2.382812 0.289062 2 0.207031 1.6875 0.0625 C 1.375 -0.0703125 1.117188 -0.25 0.921875 -0.46875 C 0.734375 -0.695312 0.59375 -0.945312 0.5 -1.21875 C 0.414062 -1.5 0.375 -1.78125 0.375 -2.0625 C 0.375 -2.238281 0.398438 -2.4375 0.453125 -2.65625 C 0.515625 -2.875 0.597656 -3.09375 0.703125 -3.3125 C 0.816406 -3.53125 0.953125 -3.742188 1.109375 -3.953125 C 1.265625 -4.160156 1.441406 -4.34375 1.640625 -4.5 C 1.847656 -4.664062 2.070312 -4.796875 2.3125 -4.890625 C 2.550781 -4.992188 2.8125 -5.046875 3.09375 -5.046875 C 3.34375 -5.035156 3.566406 -4.992188 3.765625 -4.921875 C 3.972656 -4.859375 4.15625 -4.769531 4.3125 -4.65625 C 4.46875 -4.539062 4.597656 -4.410156 4.703125 -4.265625 C 4.816406 -4.128906 4.90625 -3.984375 4.96875 -3.828125 C 5.039062 -3.679688 5.09375 -3.53125 5.125 -3.375 C 5.15625 -3.226562 5.171875 -3.085938 5.171875 -2.953125 Z M 3 -4.828125 C 2.875 -4.816406 2.753906 -4.742188 2.640625 -4.609375 C 2.535156 -4.472656 2.441406 -4.289062 2.359375 -4.0625 C 2.285156 -3.832031 2.226562 -3.5625 2.1875 -3.25 C 2.144531 -2.945312 2.125 -2.617188 2.125 -2.265625 C 2.226562 -2.148438 2.328125 -2.0625 2.421875 -2 C 2.515625 -1.9375 2.601562 -1.890625 2.6875 -1.859375 C 2.769531 -1.828125 2.835938 -1.804688 2.890625 -1.796875 C 2.953125 -1.796875 2.988281 -1.796875 3 -1.796875 C 3.144531 -1.796875 3.269531 -1.828125 3.375 -1.890625 C 3.476562 -1.953125 3.554688 -2.035156 3.609375 -2.140625 C 3.660156 -2.253906 3.695312 -2.382812 3.71875 -2.53125 C 3.75 -2.6875 3.765625 -2.863281 3.765625 -3.0625 C 3.765625 -3.289062 3.75 -3.507812 3.71875 -3.71875 C 3.6875 -3.9375 3.640625 -4.125 3.578125 -4.28125 C 3.523438 -4.445312 3.445312 -4.578125 3.34375 -4.671875 C 3.25 -4.773438 3.132812 -4.828125 3 -4.828125 Z M 3 -4.828125 "/></g></g></g><g fill="#eb690a" fill-opacity="1"><g transform="translate(61.62641, 33.056175)"><g><path d="M 4.0625 -0.421875 C 4.050781 -0.347656 4.015625 -0.273438 3.953125 -0.203125 C 3.890625 -0.128906 3.8125 -0.0625 3.71875 0 C 3.632812 0.0507812 3.539062 0.0976562 3.4375 0.140625 C 3.34375 0.191406 3.25 0.234375 3.15625 0.265625 C 3.070312 0.296875 2.992188 0.316406 2.921875 0.328125 C 2.847656 0.347656 2.800781 0.351562 2.78125 0.34375 C 2.476562 0.34375 2.207031 0.300781 1.96875 0.21875 C 1.726562 0.144531 1.519531 0.046875 1.34375 -0.078125 C 1.164062 -0.210938 1.015625 -0.367188 0.890625 -0.546875 C 0.765625 -0.722656 0.664062 -0.90625 0.59375 -1.09375 C 0.519531 -1.289062 0.46875 -1.488281 0.4375 -1.6875 C 0.40625 -1.894531 0.390625 -2.09375 0.390625 -2.28125 C 0.390625 -2.40625 0.40625 -2.5625 0.4375 -2.75 C 0.476562 -2.9375 0.535156 -3.128906 0.609375 -3.328125 C 0.679688 -3.535156 0.78125 -3.738281 0.90625 -3.9375 C 1.03125 -4.144531 1.175781 -4.328125 1.34375 -4.484375 C 1.519531 -4.648438 1.71875 -4.78125 1.9375 -4.875 C 2.164062 -4.976562 2.425781 -5.03125 2.71875 -5.03125 C 2.863281 -5.03125 3.003906 -5.003906 3.140625 -4.953125 C 3.273438 -4.910156 3.398438 -4.851562 3.515625 -4.78125 C 3.640625 -4.707031 3.753906 -4.617188 3.859375 -4.515625 C 3.960938 -4.410156 4.054688 -4.296875 4.140625 -4.171875 L 4.21875 -7.71875 L 2.9375 -7.71875 L 2.9375 -7.875 L 5.9375 -7.875 L 5.796875 -0.09375 L 6.984375 -0.09375 L 6.984375 0.125 L 4.046875 0.125 Z M 3.15625 0.015625 C 3.25 0.015625 3.34375 -0.0078125 3.4375 -0.0625 C 3.53125 -0.113281 3.617188 -0.1875 3.703125 -0.28125 C 3.796875 -0.382812 3.875 -0.507812 3.9375 -0.65625 C 4 -0.800781 4.046875 -0.96875 4.078125 -1.15625 L 4.140625 -3.734375 C 4.078125 -3.878906 4.003906 -4.003906 3.921875 -4.109375 C 3.847656 -4.222656 3.765625 -4.316406 3.671875 -4.390625 C 3.585938 -4.472656 3.5 -4.539062 3.40625 -4.59375 C 3.320312 -4.644531 3.242188 -4.6875 3.171875 -4.71875 C 3.078125 -4.71875 2.972656 -4.679688 2.859375 -4.609375 C 2.753906 -4.535156 2.65625 -4.398438 2.5625 -4.203125 C 2.46875 -4.003906 2.382812 -3.734375 2.3125 -3.390625 C 2.25 -3.046875 2.21875 -2.601562 2.21875 -2.0625 C 2.21875 -1.664062 2.242188 -1.332031 2.296875 -1.0625 C 2.359375 -0.789062 2.429688 -0.578125 2.515625 -0.421875 C 2.609375 -0.265625 2.707031 -0.148438 2.8125 -0.078125 C 2.925781 -0.015625 3.039062 0.015625 3.15625 0.015625 Z M 3.15625 0.015625 "/></g></g></g></svg>